<svg width="71" height="71" viewBox="0 0 71 71" fill="none" xmlns="http://www.w3.org/2000/svg">
<path d="M43.775 26.225C43.475 25.925 43.025 25.925 42.725 26.225L38.75 30.2V27.5C38.75 27.05 38.45 26.75 38 26.75C37.55 26.75 37.25 27.05 37.25 27.5V32C37.25 32.075 37.25 32.225 37.325 32.3C37.4 32.45 37.55 32.6 37.7 32.675C37.775 32.75 37.925 32.75 38 32.75H42.5C42.95 32.75 43.25 32.45 43.25 32C43.25 31.55 42.95 31.25 42.5 31.25H39.8L43.775 27.275C44.075 26.975 44.075 26.525 43.775 26.225Z" fill="white"/>
<path d="M41 43.175C40.925 43.175 40.85 43.175 40.775 43.175C38.375 42.875 35.975 42.05 33.95 40.775C32.075 39.575 30.425 37.925 29.225 36.05C27.875 34.025 27.05 31.625 26.825 29.225C26.825 28.625 26.975 28.025 27.35 27.575C27.725 27.125 28.25 26.825 28.85 26.75C28.925 26.75 29 26.75 29.075 26.75H31.325C32.45 26.75 33.425 27.575 33.575 28.7C33.65 29.375 33.8 30.05 34.025 30.65C34.325 31.475 34.1 32.375 33.5 33.05L32.975 33.575C33.875 34.925 35 36.125 36.425 37.025L36.95 36.5C37.55 35.9 38.525 35.675 39.35 35.975C39.95 36.2 40.625 36.35 41.3 36.425C42.425 36.575 43.25 37.55 43.25 38.675V40.925C43.25 41.525 43.025 42.125 42.575 42.5C42.125 42.875 41.6 43.175 41 43.175ZM31.325 28.25H29.075C28.85 28.25 28.625 28.4 28.475 28.55C28.4 28.7 28.325 28.85 28.325 29.075C28.55 31.25 29.3 33.35 30.5 35.225C31.625 36.95 33.05 38.45 34.775 39.5C36.65 40.7 38.75 41.45 40.925 41.675C41.225 41.675 41.375 41.6 41.525 41.45C41.675 41.3 41.75 41.15 41.75 40.925V38.675C41.75 38.3 41.45 38 41.075 37.925C40.325 37.85 39.575 37.625 38.825 37.325C38.525 37.25 38.225 37.25 38 37.475L37.025 38.45C36.8 38.675 36.425 38.75 36.125 38.6C34.1 37.475 32.45 35.825 31.325 33.8C31.25 33.5 31.325 33.125 31.55 32.9L32.525 31.925C32.675 31.775 32.75 31.4 32.675 31.175C32.375 30.425 32.225 29.675 32.075 28.925C32.075 28.55 31.7 28.25 31.325 28.25Z" fill="white"/>
<circle cx="35.5" cy="35.5" r="35" stroke="white"/>
</svg>
